<svg height="512pt" viewBox="0 -41 512 512" width="512pt" xmlns="http://www.w3.org/2000/svg"><path d="m335.960938 177.605469h-305.054688v-30.90625h305.054688c2.207031 0 4 1.792969 4 4v22.90625c0 2.210937-1.792969 4-4 4zm0 0" fill="#484b63"/><g fill="#50536e"><path d="m131.347656 383.640625h-30.90625v-231.789063c0-8.535156 6.917969-15.453124 15.453125-15.453124 8.535157 0 15.453125 6.917968 15.453125 15.453124zm0 0"/><path d="m192.816406 383.640625h-30.90625v-247.242187c0-8.535157 6.917969-15.453126 15.453125-15.453126 8.535157 0 15.453125 6.917969 15.453125 15.453126zm0 0"/><path d="m254.28125 383.640625h-30.902344v-247.242187c0-8.535157 6.917969-15.453126 15.449219-15.453126 8.535156 0 15.453125 6.917969 15.453125 15.453126zm0 0"/><path d="m315.75 383.640625h-30.90625v-247.242187c0-8.535157 6.917969-15.453126 15.453125-15.453126s15.453125 6.917969 15.453125 15.453126zm0 0"/></g><path d="m339.960938 414.546875h-309.054688v-46.359375h305.054688c2.207031 0 4 1.792969 4 4zm0 0" fill="#484b63"/><path d="m15.453125 46.546875h30.90625v69.25h-30.90625zm0 0" fill="#50536e"/><path d="m465.640625 46.546875h30.90625v69.25h-30.90625zm0 0" fill="#50536e"/><path d="m421.859375 240.445312v39.148438c0 1.707031-1.382813 3.089844-3.089844 3.089844h-31.9375v13.414062c0 1.78125-2.144531 2.699219-3.460937 1.496094l-39.148438-36.078125c-.875-.804687-.875-2.183594 0-2.988281l39.148438-36.078125c1.320312-1.203125 3.460937-.289063 3.460937 1.496093v13.410157h31.9375c1.707031 0 3.089844 1.382812 3.089844 3.089843zm0 0" fill="#ffd659"/><path d="m0 90.039062h61.8125v324.507813h-61.8125zm0 0" fill="#cfe0e9"/><path d="m30.90625 90.039062h30.902344v324.507813h-30.902344zm0 0" fill="#abbfcf"/><path d="m450.1875 90.039062h61.8125v324.507813h-61.8125zm0 0" fill="#cfe0e9"/><path d="m481.09375 90.039062h30.90625v324.507813h-30.90625zm0 0" fill="#abbfcf"/><path d="m508 430h-504c-2.210938 0-4-1.789062-4-4v-26.90625h512v26.90625c0 2.210938-1.789062 4-4 4zm0 0" fill="#ff663b"/><path d="m508 430h-26.90625v-30.90625h30.90625v26.90625c0 2.210938-1.789062 4-4 4zm0 0" fill="#e8572e"/><path d="m61.808594 30.90625c0 17.066406-13.835938 30.902344-30.902344 30.902344-17.070312 0-30.90625-13.835938-30.90625-30.902344 0-17.070312 13.835938-30.90625 30.90625-30.90625 17.066406 0 30.902344 13.835938 30.902344 30.90625zm0 0" fill="#ffd659"/><path d="m30.90625 0c-5.632812 0-10.90625 1.515625-15.453125 4.144531 9.234375 5.34375 15.453125 15.324219 15.453125 26.761719s-6.21875 21.414062-15.453125 26.761719c4.546875 2.628906 9.820313 4.144531 15.453125 4.144531 17.066406 0 30.902344-13.835938 30.902344-30.90625 0-17.066406-13.835938-30.90625-30.902344-30.90625zm0 0" fill="#ffbd54"/><path d="m512 30.90625c0 17.066406-13.835938 30.902344-30.90625 30.902344-17.066406 0-30.902344-13.835938-30.902344-30.902344 0-17.070312 13.835938-30.90625 30.902344-30.90625 17.070312 0 30.90625 13.835938 30.90625 30.90625zm0 0" fill="#ffd659"/><path d="m481.09375 0c-5.628906 0-10.90625 1.515625-15.453125 4.144531 9.238281 5.34375 15.453125 15.324219 15.453125 26.761719s-6.214844 21.414062-15.453125 26.761719c4.546875 2.628906 9.824219 4.144531 15.453125 4.144531 17.070312 0 30.90625-13.835938 30.90625-30.90625 0-17.066406-13.835938-30.90625-30.90625-30.90625zm0 0" fill="#ffbd54"/></svg>