<svg id="Capa_1" enable-background="new 0 0 512.053 512.053" height="512" viewBox="0 0 512.053 512.053" width="512" xmlns="http://www.w3.org/2000/svg"><g><g><g><g><path d="m169.033 364.382v-332.407c0-17.586-14.389-31.975-31.975-31.975h-3.37c-17.587 0-31.976 14.389-31.976 31.975v20.101l10 15-10 15v33.951l10 15-10 15v33.951l10 15-10 15v33.951l10 15-10 15v33.951l10 15-10 15v26.502c-26.035 12.541-44.002 39.176-44.002 70.009 0 42.892 34.771 77.663 77.663 77.663s77.663-34.771 77.663-77.663c-.001-30.833-17.968-57.468-44.003-70.009z" fill="#a0d1fd"/><path d="m169.033 364.382v-332.407c0-17.586-14.389-31.975-31.975-31.975h-1.685v512.053c42.892 0 77.663-34.771 77.663-77.663-.001-30.832-17.968-57.467-44.003-70.008z" fill="#41acfc"/></g><g><path d="m101.712 82.077h12.343c8.284 0 15-6.716 15-15s-6.716-15-15-15h-12.343z" fill="#1063e0"/><path d="m101.712 146.027h12.343c8.284 0 15-6.716 15-15s-6.716-15-15-15h-12.343z" fill="#1a97fc"/><path d="m101.712 209.978h12.343c8.284 0 15-6.716 15-15s-6.716-15-15-15h-12.343z" fill="#41acfc"/><path d="m101.712 273.929h12.343c8.284 0 15-6.716 15-15s-6.716-15-15-15h-12.343z" fill="#76bdfc"/><path d="m101.712 337.88h12.343c8.284 0 15-6.716 15-15s-6.716-15-15-15h-12.343z" fill="#e1f0fd"/></g></g><g><path d="m57.951 440.229c2.989 40.161 36.496 71.824 77.421 71.824 40.926 0 74.433-31.663 77.422-71.824z" fill="#fd7d4b"/><path d="m135.372 440.229v71.824c40.926 0 74.433-31.663 77.422-71.824z" fill="#fc4c1e"/></g></g><g><path d="m439.421 186.363 10.528-10.528c5.858-5.858 5.858-15.355 0-21.213-5.857-5.858-15.355-5.858-21.213 0l-17.042 17.042h-33.074l28.205-28.206c5.858-5.858 5.858-15.355 0-21.213-5.857-5.858-15.355-5.858-21.213 0l-28.205 28.205v-33.676l16.741-16.741c5.858-5.858 5.858-15.355 0-21.213-5.857-5.858-15.355-5.858-21.213 0l-10.528 10.528-10.528-10.528c-5.857-5.857-15.355-5.857-21.213.001s-5.857 15.355 0 21.213l16.742 16.741v33.676l-28.206-28.206c-5.857-5.858-15.354-5.858-21.213 0-5.858 5.858-5.858 15.355 0 21.213l28.205 28.206h-33.074l-17.042-17.042c-5.857-5.858-15.355-5.858-21.213 0s-5.858 15.355 0 21.213l10.528 10.528-10.528 10.529c-5.858 5.858-5.858 15.355 0 21.213 2.929 2.929 6.767 4.393 10.606 4.393s7.678-1.464 10.606-4.393l16.441-16.441h33.676l-28.206 28.206c-5.858 5.858-5.858 15.355 0 21.213 2.929 2.929 6.768 4.394 10.606 4.394 3.839 0 7.678-1.464 10.607-4.394l28.206-28.206v33.074l-16.742 16.742c-5.858 5.858-5.858 15.355 0 21.213 2.929 2.929 6.768 4.393 10.606 4.393s7.678-1.465 10.606-4.393l10.529-10.529 10.528 10.529c2.929 2.929 6.768 4.393 10.607 4.393 3.838 0 7.678-1.465 10.606-4.393 5.858-5.858 5.858-15.355 0-21.213l-16.741-16.742v-33.074l28.205 28.205c2.929 2.929 6.768 4.394 10.607 4.394s7.678-1.465 10.606-4.394c5.858-5.857 5.858-15.355 0-21.213l-28.206-28.206h33.677l16.44 16.441c2.929 2.929 6.768 4.393 10.607 4.393 3.838 0 7.678-1.465 10.606-4.393 5.858-5.858 5.858-15.355 0-21.213z" fill="#1a97fc"/><path d="m439.421 186.363 10.528-10.528c5.858-5.858 5.858-15.355 0-21.213-5.857-5.858-15.355-5.858-21.213 0l-17.042 17.042h-33.074l28.205-28.206c5.858-5.858 5.858-15.355 0-21.213-5.857-5.858-15.355-5.858-21.213 0l-28.205 28.205v-33.676l16.741-16.741c5.858-5.858 5.858-15.355 0-21.213-5.857-5.858-15.355-5.858-21.213 0l-10.528 10.528v-.001 194.03l10.528 10.529c2.929 2.929 6.768 4.393 10.607 4.393 3.838 0 7.678-1.465 10.606-4.393 5.858-5.858 5.858-15.355 0-21.213l-16.741-16.742v-33.074l28.205 28.205c2.929 2.929 6.768 4.394 10.607 4.394s7.678-1.465 10.606-4.394c5.858-5.857 5.858-15.355 0-21.213l-28.206-28.206h33.677l16.44 16.441c2.929 2.929 6.768 4.393 10.607 4.393 3.838 0 7.678-1.465 10.606-4.393 5.858-5.858 5.858-15.355 0-21.213z" fill="#1063e0"/></g></g></svg>