<svg id="Capa_1" enable-background="new 0 0 512.053 512.053" height="512" viewBox="0 0 512.053 512.053" width="512" xmlns="http://www.w3.org/2000/svg"><g><g><g><g><path d="m177.049 364.382v-332.407c0-17.586-14.389-31.975-31.975-31.975h-3.37c-17.587 0-31.975 14.389-31.975 31.975v20.101l10 15-10 15v33.951l10 15-10 15v33.951l10 15-10 15v33.951l10 15-10 15v33.951l10 15-10 15v26.502c-26.035 12.541-44.002 39.176-44.002 70.008 0 42.892 34.771 77.663 77.663 77.663s77.663-34.771 77.663-77.663c-.002-30.832-17.969-57.467-44.004-70.008z" fill="#a0d1fd"/><path d="m177.049 364.382v-332.407c0-17.586-14.389-31.975-31.975-31.975h-1.685v512.053c42.892 0 77.663-34.771 77.663-77.663-.001-30.832-17.968-57.467-44.003-70.008z" fill="#41acfc"/></g><g><path d="m119.728 131.027-10 15v33.951l10 15-10 15v33.951l10 14.811-10 15.189v33.951l10 13.66-10 16.34v26.502c-26.035 12.541-44.002 39.176-44.002 70.008 0 42.892 34.771 77.663 77.663 77.663s77.663-34.771 77.663-77.663c0-30.832-17.967-57.468-44.002-70.008v-233.355z" fill="#fd7d4b"/><path d="m143.388 131.027v381.026c42.892 0 77.663-34.771 77.663-77.663 0-30.832-17.967-57.468-44.002-70.008v-233.355z" fill="#fc4c1e"/></g></g><g><path d="m109.728 82.077h12.343c8.284 0 15-6.716 15-15s-6.716-15-15-15h-12.343z" fill="#1785fb"/><path d="m109.728 146.027h12.343c8.284 0 15-6.716 15-15s-6.716-15-15-15h-12.343z" fill="#41acfc"/><path d="m109.728 209.978h12.343c8.284 0 15-6.716 15-15s-6.716-15-15-15h-12.343z" fill="#76bdfc"/><path d="m109.728 273.929h12.343c8.284 0 15-6.716 15-15s-6.716-15-15-15h-12.343z" fill="#a0d1fd"/><path d="m109.728 337.88h12.343c8.284 0 15-6.716 15-15s-6.716-15-15-15h-12.343z" fill="#e1f0fd"/></g></g><g><g><path d="m431.328 173.567h-51.048l36.096-36.096c5.858-5.858 5.858-15.355 0-21.213-5.857-5.858-15.355-5.858-21.213 0l-36.096 36.096v-51.047c0-8.284-6.716-15-15-15s-15 6.716-15 15v51.048l-36.096-36.096c-5.857-5.858-15.355-5.858-21.213 0s-5.858 15.355 0 21.213l36.096 36.096h-51.048c-8.284 0-15 6.716-15 15s6.716 15 15 15h51.047l-36.096 36.096c-5.858 5.858-5.858 15.355 0 21.213 2.929 2.929 6.768 4.394 10.606 4.394 3.839 0 7.678-1.464 10.606-4.394l36.096-36.096v51.048c0 8.284 6.716 15 15 15s15-6.716 15-15v-51.049l36.096 36.096c2.929 2.929 6.768 4.394 10.606 4.394 3.839 0 7.678-1.464 10.606-4.394 5.858-5.858 5.858-15.355 0-21.213l-36.096-36.096h51.047c8.284 0 15-6.716 15-15 .004-8.284-6.712-15-14.996-15z" fill="#fddb8d"/><path d="m431.328 173.567h-51.048l36.096-36.096c5.858-5.858 5.858-15.355 0-21.213-5.857-5.858-15.355-5.858-21.213 0l-36.096 36.096v-51.047c0-8.284-6.716-15-15-15v204.521c8.284 0 15-6.716 15-15v-51.048l36.096 36.096c2.929 2.929 6.768 4.394 10.606 4.394 3.839 0 7.678-1.464 10.606-4.394 5.858-5.858 5.858-15.355 0-21.213l-36.096-36.096h51.047c8.284 0 15-6.716 15-15 .002-8.284-6.714-15-14.998-15z" fill="#fbac5b"/></g><g><path d="m344.067 258.741c-38.694 0-70.174-31.48-70.174-70.174s31.48-70.174 70.174-70.174 70.174 31.48 70.174 70.174-31.48 70.174-70.174 70.174z" fill="#fbac5b"/><path d="m344.067 118.393v140.348c38.694 0 70.174-31.48 70.174-70.174 0-38.695-31.48-70.174-70.174-70.174z" fill="#fd8f32"/></g></g></g></svg>