<?xml version="1.0" encoding="iso-8859-1"?>
<!-- Generator: Adobe Illustrator 19.0.0, SVG Export Plug-In . SVG Version: 6.00 Build 0)  -->
<svg version="1.1" id="Layer_1" xmlns="http://www.w3.org/2000/svg" xmlns:xlink="http://www.w3.org/1999/xlink" x="0px" y="0px"
	 viewBox="0 0 512 512" style="enable-background:new 0 0 512 512;" xml:space="preserve">
<path style="fill:#FFFFFF;" d="M475.563,247.392c-1.792,5.803-3.669,11.52-5.632,17.067H273.067c-4.693,0-8.533,3.84-8.533,8.533
	v216.576c-2.816,1.451-5.717,2.901-8.533,4.352c-2.816-1.451-5.717-2.901-8.533-4.352V272.992c0-4.693-3.84-8.533-8.533-8.533
	H42.069c-1.963-5.547-3.84-11.264-5.632-17.067h202.496c4.693,0,8.533-3.84,8.533-8.533V31.575c2.901-3.157,5.717-6.4,8.533-9.728
	c2.816,3.328,5.632,6.571,8.533,9.728V238.85c0,4.693,3.84,8.533,8.533,8.533h202.496V247.392z"/>
<path style="fill:#D50000;" d="M463.36,281.525c-40.107,97.707-112.384,159.829-181.76,198.827V281.525H463.36z"/>
<path style="fill:#0091EA;" d="M494.848,119.307c-0.597,40.789-5.803,77.653-14.421,111.019H281.6V49.077
	C327.765,92.93,386.219,118.112,494.848,119.307z"/>
<path d="M503.467,102.325c-135.168,0-188.928-34.901-240.811-99.243c-3.243-4.011-10.069-4.011-13.312,0
	c-51.883,64.341-105.643,99.243-240.811,99.243c-4.693,0-8.533,3.84-8.533,8.533C0,341.003,137.216,455.52,252.331,511.072
	c1.109,0.597,2.389,0.853,3.669,0.853c1.28,0,2.56-0.256,3.669-0.853C374.784,455.52,512,340.994,512,110.859
	C512,106.165,508.16,102.325,503.467,102.325z M17.152,119.307c108.629-1.195,167.083-26.368,213.248-70.229v181.248H31.573
	C22.955,196.951,17.749,160.087,17.152,119.307z M230.4,480.352c-69.376-38.997-141.653-101.12-181.76-198.827H230.4V480.352z
	 M281.6,480.352V281.525h181.76C423.253,379.232,350.976,441.355,281.6,480.352z M469.931,264.459H273.067
	c-4.693,0-8.533,3.84-8.533,8.533v216.576c-2.816,1.451-5.717,2.901-8.533,4.352c-2.816-1.451-5.717-2.901-8.533-4.352V272.992
	c0-4.693-3.84-8.533-8.533-8.533H42.069c-1.963-5.547-3.84-11.264-5.632-17.067h202.496c4.693,0,8.533-3.84,8.533-8.533V31.575
	c2.901-3.157,5.717-6.4,8.533-9.728c2.816,3.328,5.632,6.571,8.533,9.728V238.85c0,4.693,3.84,8.533,8.533,8.533h202.496
	C473.771,253.195,471.893,258.912,469.931,264.459z M480.427,230.325H281.6V49.077c46.165,43.861,104.619,69.035,213.248,70.229
	C494.251,160.087,489.045,196.951,480.427,230.325z"/>
<path style="fill:#0091EA;" d="M230.4,281.525v198.827c-69.376-38.997-141.653-101.12-181.76-198.827H230.4z"/>
<path style="fill:#D50000;" d="M230.4,49.077v181.248H31.573c-8.619-33.365-13.824-70.229-14.421-111.019
	C125.781,118.112,184.235,92.93,230.4,49.077z"/>
<path style="fill:#F4F4F4;" d="M247.467,471.127v18.441c2.816,1.451,5.717,2.901,8.533,4.352c2.816-1.451,5.717-2.901,8.533-4.352
	V461.63C259.029,464.685,252.962,468.073,247.467,471.127z"/>
<path style="fill:#B71C1C;" d="M431.94,281.525c-35.763,78.447-92.535,132.787-150.34,170.052v28.774
	c69.376-38.997,141.653-101.12,181.76-198.827H431.94z"/>
<path style="fill:#2979FF;" d="M468.932,118.453c-1.613,36.079-7.671,81.34-14.618,111.872h26.112
	c8.619-33.365,13.824-70.229,14.421-111.019C485.828,119.204,477.278,118.88,468.932,118.453z"/>
<path style="fill:#F4F4F4;" d="M447.292,247.392c-1.792,5.803-3.669,11.52-5.632,17.067h28.271
	c1.963-5.547,3.84-11.264,5.632-17.067H447.292z"/>
<g>
</g>
<g>
</g>
<g>
</g>
<g>
</g>
<g>
</g>
<g>
</g>
<g>
</g>
<g>
</g>
<g>
</g>
<g>
</g>
<g>
</g>
<g>
</g>
<g>
</g>
<g>
</g>
<g>
</g>
</svg>
